<svg id="Layer_1" xmlns="http://www.w3.org/2000/svg" width="127.9" height="105.7" viewBox="0 0 127.9 105.7"><style>.st0{fill:#fff}.st1{fill:#455560}</style><path class="st0" d="M125.9 52.9c0 28.4-27.8 51.4-62 51.4s-62-23-62-51.4 27.8-51.4 62-51.4c34.3 0 62 23 62 51.4z"/><path class="st1" d="M119.5 52.8c0 25.2-24.9 45.6-55.5 45.6C33.3 98.4 8.4 78 8.4 52.8 8.4 27.7 33.3 7.3 64 7.3c30.6 0 55.5 20.4 55.5 45.5z"/><path d="M61.6 14.3c29.3 0 53.2 18.9 53.2 42.9 0 5.2-1.1 10.1-3.1 14.7 3.5-5.8 5.4-12.3 5.4-19.1 0-24.1-23.8-43.6-53.1-43.6-23 0-42.6 12-50 28.8 8.6-14.4 26.7-23.7 47.6-23.7z" fill="#7c8b95"/><path class="st1" d="M18.9 90.3C7.3 80.8 0 67.6 0 52.8c0-14.7 7.3-28 18.9-37.5C30.5 5.8 46.4 0 64 0c17.5 0 33.4 5.8 45 15.3 11.6 9.5 18.9 22.8 18.9 37.5s-7.3 28-18.9 37.5c-11.6 9.5-27.5 15.3-45.1 15.3-17.5.1-33.4-5.7-45-15.3zm2.7-71.7C10.8 27.5 4.2 39.5 4.2 52.8c0 13.3 6.6 25.4 17.3 34.2 10.8 8.8 25.8 14.4 42.4 14.4 16.6 0 31.6-5.5 42.4-14.4 10.8-8.9 17.3-20.9 17.3-34.2 0-13.3-6.6-25.4-17.3-34.2C95.6 9.8 80.6 4.2 64 4.2c-16.6 0-31.6 5.6-42.4 14.4z"/><path class="st0" d="M88.9 38.9l1.9.9 6.9-11.3-1.3-.7s-1.2 1.9-3.3 1.1c-2.1-.9-13.3-5.8-28-6.1-14.8-.3-31.3 5.9-37.6 17.9-6.4 11.9-2.6 25 6.8 32.6 9.3 7.6 20.3 10.3 33.4 9.7 13.1-.6 24.7-7.6 27-9.2 2.3-1.6 3.6-1.5 5-.3l1.1-.8s-7.2-7.4-9.2-9.8l-.9.6s1.2 2.4-.8 3.9-9.5 8.2-27 8.5c-17.5.3-30.2-9.9-29.6-24 .6-14.1 13.4-19 20.6-20.8 7.2-1.8 18.6-1.8 27 .9 8.3 2.7 9.4 5.3 8 6.9z"/></svg>