<?xml version="1.0" encoding="utf-8"?>
<!-- Generator: Adobe Illustrator 22.0.1, SVG Export Plug-In . SVG Version: 6.00 Build 0)  -->
<svg version="1.1" id="Layer_1" xmlns="http://www.w3.org/2000/svg" xmlns:xlink="http://www.w3.org/1999/xlink" x="0px" y="0px"
	 width="127.9px" height="105.7px" viewBox="0 0 127.9 105.7" style="enable-background:new 0 0 127.9 105.7;" xml:space="preserve"
	>
<style type="text/css">
	.st0{fill:#FFFFFF;}
	.st1{fill:#455560;}
	.st2{fill:#7C8B95;}
</style>
<g>
	<path class="st0" d="M125.9,52.9c0,28.4-27.8,51.4-62,51.4c-34.2,0-62-23-62-51.4c0-28.4,27.8-51.4,62-51.4
		C98.2,1.5,125.9,24.5,125.9,52.9z"/>
	<path class="st1" d="M119.5,52.8c0,25.2-24.9,45.6-55.5,45.6C33.3,98.4,8.4,78,8.4,52.8C8.4,27.7,33.3,7.3,64,7.3
		C94.6,7.3,119.5,27.7,119.5,52.8z"/>
	<path class="st2" d="M61.6,14.3c29.3,0,53.2,18.9,53.2,42.9c0,5.2-1.1,10.1-3.1,14.7c3.5-5.8,5.4-12.3,5.4-19.1
		c0-24.1-23.8-43.6-53.1-43.6c-23,0-42.6,12-50,28.8C22.6,23.6,40.7,14.3,61.6,14.3z"/>
	<path class="st1" d="M18.9,90.3C7.3,80.8,0,67.6,0,52.8l0,0c0-14.7,7.3-28,18.9-37.5l0,0C30.5,5.8,46.4,0,64,0l0,0
		C81.5,0,97.4,5.8,109,15.3l0,0c11.6,9.5,18.9,22.8,18.9,37.5l0,0c0,14.7-7.3,28-18.9,37.5l0,0c-11.6,9.5-27.5,15.3-45.1,15.3l0,0
		C46.4,105.7,30.5,99.9,18.9,90.3L18.9,90.3z M21.6,18.6C10.8,27.5,4.2,39.5,4.2,52.8l0,0c0,13.3,6.6,25.4,17.3,34.2l0,0
		c10.8,8.8,25.8,14.4,42.4,14.4l0,0c16.6,0,31.6-5.5,42.4-14.4l0,0c10.8-8.9,17.3-20.9,17.3-34.2l0,0c0-13.3-6.6-25.4-17.3-34.2l0,0
		C95.6,9.8,80.6,4.2,64,4.2l0,0c0,0,0,0,0,0l0,0C47.4,4.2,32.4,9.8,21.6,18.6L21.6,18.6z"/>
	<path class="st0" d="M88.9,38.9l1.9,0.9l6.9-11.3l-1.3-0.7c0,0-1.2,1.9-3.3,1.1c-2.1-0.9-13.3-5.8-28-6.1
		c-14.8-0.3-31.3,5.9-37.6,17.9c-6.4,11.9-2.6,25,6.8,32.6c9.3,7.6,20.3,10.3,33.4,9.7c13.1-0.6,24.7-7.6,27-9.2
		c2.3-1.6,3.6-1.5,5-0.3l1.1-0.8c0,0-7.2-7.4-9.2-9.8l-0.9,0.6c0,0,1.2,2.4-0.8,3.9c-2,1.5-9.5,8.2-27,8.5
		c-17.5,0.3-30.2-9.9-29.6-24c0.6-14.1,13.4-19,20.6-20.8c7.2-1.8,18.6-1.8,27,0.9C89.2,34.7,90.3,37.3,88.9,38.9z"/>
</g>
</svg>
