<?xml version="1.0" encoding="utf-8"?>
<!-- Generator: Adobe Illustrator 22.0.1, SVG Export Plug-In . SVG Version: 6.00 Build 0)  -->
<svg version="1.1" id="Слой_1" xmlns="http://www.w3.org/2000/svg" xmlns:xlink="http://www.w3.org/1999/xlink" x="0px" y="0px"
	 viewBox="0 0 128 32" style="enable-background:new 0 0 128 32;" xml:space="preserve">
<style type="text/css">
	.st0{fill:#FFFFFF;}
</style>
<g>
	<path class="st0" d="M6,27.4C2.3,24.7,0.1,20.5,0,16l0,0c0.1-4.5,2.3-8.7,6-11.4l0,0c4.1-3.1,9.1-4.7,14.2-4.6l0,0
		c5.1-0.1,10.1,1.6,14.2,4.6l0,0c3.7,2.7,5.9,6.8,6,11.4l0,0c-0.1,4.5-2.3,8.7-6,11.4l0,0c-4.1,3.1-9.1,4.7-14.2,4.6l0,0
		C15.1,32.1,10.1,30.4,6,27.4z M6.8,5.6C3.5,8.1,1.4,11.9,1.3,16l0,0c0.1,4.1,2.1,7.9,5.5,10.4l0,0c3.8,2.9,8.5,4.4,13.4,4.4l0,0
		c4.8,0.1,9.5-1.5,13.4-4.4l0,0C36.9,24,38.9,20.1,39,16l0,0c-0.1-4.1-2.1-7.9-5.5-10.4l0,0C29.7,2.7,25,1.2,20.2,1.3l0,0
		C15.3,1.2,10.6,2.7,6.8,5.6z M20.2,2.2C10.5,2.2,2.7,8.4,2.7,16s7.8,13.8,17.5,13.8S37.7,23.6,37.7,16S29.8,2.2,20.2,2.2z
		 M31.4,22.2c-0.4-0.4-0.9-0.4-1.6,0.1c-2.6,1.6-5.5,2.6-8.5,2.8c-4.1,0.2-7.6-0.6-10.5-2.9c-3.1-2.3-4-6.5-2.1-9.9
		c2-3.6,7.2-5.5,11.9-5.4c3,0.1,6,0.7,8.8,1.9c0.4,0.1,0.8,0,1-0.3l0.4,0.2l-2.2,3.4L28,11.8c0.4-0.5,0.1-1.3-2.6-2.1
		c-2.8-0.7-5.6-0.8-8.4-0.3c-2.3,0.5-6.3,2-6.5,6.3s3.8,7.3,9.3,7.3s7.9-2.1,8.5-2.6c0.3-0.3,0.4-0.8,0.2-1.2l0.3-0.2
		c0.6,0.7,2.9,3,2.9,3L31.4,22.2z M19.4,4.3c-6.6,0-12.3,2.8-15,7.2c2.3-5.1,8.5-8.7,15.8-8.7c9.2,0,16.7,5.9,16.7,13.2
		c0,2.1-0.6,4.1-1.7,5.8c0.7-1.4,1-2.9,1-4.5C36.2,10,28.7,4.3,19.4,4.3z M52.2,9.3C52.2,9.3,52.2,9.3,52.2,9.3c0-0.1,0-0.1,0-0.2
		c0-0.1-0.1-0.2-0.2-0.3c-0.2-0.1-0.4-0.2-0.6-0.3c-0.3-0.1-0.6-0.2-0.9-0.3c-0.4-0.1-0.7-0.1-1.1-0.1c-0.4,0-0.9,0.1-1.3,0.2
		c-0.4,0.1-0.7,0.3-1,0.6c-0.3,0.3-0.5,0.6-0.7,0.9c-0.2,0.4-0.2,0.8-0.2,1.2c0,0.4,0.1,0.9,0.3,1.3c0.2,0.4,0.4,0.7,0.7,0.9
		c0.3,0.3,0.6,0.5,1,0.6c0.4,0.1,0.8,0.2,1.2,0.2c0.4,0,0.8,0,1.1-0.1c0.3-0.1,0.7-0.2,1-0.3c0.3-0.1,0.5-0.2,0.8-0.4
		c0.2-0.1,0.3-0.3,0.3-0.4v-0.1c0-0.1,0-0.1,0-0.2l0.2-0.2l1.5,2.1L54,14.5c-0.1,0-0.2-0.1-0.3-0.1c-0.2,0-0.4,0.1-0.5,0.2
		c-0.2,0.1-0.5,0.2-0.9,0.4c-0.4,0.2-0.9,0.3-1.3,0.4c-0.5,0.1-1.1,0.2-1.7,0.1c-0.6,0-1.2-0.1-1.8-0.2c-0.6-0.2-1.1-0.4-1.6-0.8
		c-0.5-0.4-0.9-0.9-1.2-1.5c-0.3-0.6-0.5-1.3-0.4-1.9c0-0.7,0.1-1.3,0.4-1.9c0.3-0.5,0.7-1,1.2-1.3c0.5-0.4,1.1-0.7,1.7-0.8
		c0.6-0.2,1.3-0.3,1.9-0.3c0.5,0,0.9,0,1.4,0.1c0.4,0.1,0.8,0.2,1.1,0.3c0.3,0.1,0.6,0.2,0.8,0.3c0.1,0.1,0.3,0.1,0.5,0.1
		c0.1,0,0.1,0,0.2,0c0,0,0.1-0.1,0.2-0.1l0.2,0.1l-1.3,1.8L52.2,9.3z M54.3,15.1c0.2,0,0.3-0.1,0.4-0.2c0.1-0.1,0.2-0.2,0.2-0.3
		l3-6.3l0.2-0.4c0-0.1,0.1-0.2,0.1-0.3c0-0.1,0-0.1,0-0.2L58,7.2V6.9h3.1v0.3H61c0,0-0.1,0.1-0.1,0.2c0,0.1,0,0.2,0.1,0.3L61.2,8
		l3.3,6.6c0.1,0.1,0.1,0.2,0.2,0.3c0.1,0.1,0.2,0.1,0.3,0.1v0.4h-2.9v-0.3c0.1,0,0.1,0,0.2-0.1c0.1,0,0.1-0.1,0.1-0.2
		c0-0.1,0-0.1,0-0.2c0-0.1-0.1-0.1-0.1-0.3l-0.5-1.1h-4.4l-0.6,1.1c0,0.1-0.1,0.2-0.1,0.3c0,0.1,0,0.2,0,0.2c0,0.1,0,0.2,0.1,0.2
		c0.1,0,0.2,0,0.3,0v0.4h-2.7V15.1z M61.1,11.9l-1.7-3.3L58,11.8L61.1,11.9z M65.5,15.1c0.1,0,0.1,0,0.2-0.1c0,0,0.1-0.1,0.1-0.3
		V7.6c0-0.1,0-0.2-0.1-0.3c-0.1,0-0.1,0-0.2,0V6.9h2.8v0.3c-0.1,0-0.2,0-0.2,0.2c0,0.1,0,0.1,0.1,0.2l0.2,0.4l2.5,4.4L73.4,8
		l0.2-0.4c0-0.1,0.1-0.1,0.1-0.2c0-0.1-0.1-0.2-0.2-0.2V6.9h2.9v0.3c-0.1,0-0.1,0-0.2,0c-0.1,0-0.1,0.1-0.1,0.2v7.3
		c0,0.1,0,0.2,0.1,0.2c0.1,0,0.1,0.1,0.2,0.1v0.4H74V15c0.3,0,0.4-0.1,0.4-0.3V9.3l0,0l-3.4,6.1h-0.2l-3.3-6.1l0,0v5.5
		c0,0.2,0.1,0.3,0.3,0.3v0.4h-2.3L65.5,15.1z M77.5,7.3c-0.1,0-0.2-0.1-0.3-0.1V6.9h6.3c0.5,0,0.9,0,1.4,0.2
		c0.3,0.1,0.7,0.3,0.9,0.5c0.5,0.4,0.7,0.9,0.7,1.5c0,0.2,0,0.4-0.1,0.6c-0.1,0.2-0.2,0.4-0.3,0.5c-0.1,0.2-0.3,0.3-0.4,0.4
		c-0.1,0.1-0.3,0.2-0.5,0.3l0,0c0.2,0.1,0.4,0.2,0.6,0.3c0.2,0.1,0.4,0.3,0.5,0.5c0.2,0.2,0.3,0.4,0.4,0.6c0.1,0.2,0.1,0.5,0.1,0.8
		c0,0.3-0.1,0.6-0.2,0.9c-0.1,0.3-0.3,0.5-0.6,0.7c-0.3,0.2-0.6,0.4-1,0.5c-0.5,0.1-1,0.2-1.5,0.2h-6.3V15c0.1,0,0.2,0,0.3-0.1
		c0.1,0,0.2-0.1,0.2-0.2V7.5C77.7,7.4,77.7,7.3,77.5,7.3L77.5,7.3z M83.2,10.3c0.3,0,0.6-0.1,0.9-0.2c0.3-0.1,0.5-0.5,0.4-0.8
		c0-0.2,0-0.3-0.1-0.5c-0.1-0.1-0.2-0.2-0.3-0.3c-0.1-0.1-0.3-0.1-0.4-0.1h-0.5h-3.6v1.9L83.2,10.3z M83.2,14
		c0.4,0.1,0.9-0.1,1.3-0.3c0.2-0.2,0.4-0.5,0.3-0.8c0-0.4-0.1-0.7-0.4-0.9c-0.5-0.2-1-0.3-1.5-0.3h-3.2V14L83.2,14z M87.6,15.1
		c0.2,0,0.3,0,0.4-0.1c0.1,0,0.1-0.1,0.1-0.2V7.5c0-0.1,0-0.2-0.1-0.2c-0.1,0-0.3-0.1-0.4-0.1V6.9h3.1v0.3c-0.4,0-0.6,0.1-0.6,0.3
		v7.3c0,0.2,0.2,0.3,0.6,0.3v0.4h-3.1L87.6,15.1z M91.2,15.1c0.2,0,0.3-0.1,0.4-0.2c0.1-0.1,0.2-0.2,0.2-0.3l3-6.3
		C94.9,8.1,95,7.9,95,7.8c0-0.1,0.1-0.2,0.1-0.3c0-0.1,0-0.1,0-0.2L95,7.2V6.9h3v0.3h-0.1c0,0-0.1,0.1-0.1,0.2c0,0.1,0,0.2,0.1,0.3
		C97.9,7.8,98,7.9,98.1,8l3.3,6.6c0.1,0.1,0.1,0.2,0.2,0.3c0.1,0.1,0.2,0.1,0.3,0.1v0.4H99v-0.3c0.1,0,0.1,0,0.2-0.1
		c0.1,0,0.1-0.1,0.1-0.2c0-0.1,0-0.1,0-0.2c0-0.1-0.1-0.1-0.1-0.3l-0.6-1.1h-4.4l-0.6,1.1c0,0.1-0.1,0.2-0.1,0.3c0,0.1,0,0.2,0,0.2
		c0,0.1,0,0.2,0.1,0.2c0.1,0,0.2,0,0.3,0v0.4h-2.8L91.2,15.1z M98,11.8l-1.7-3.3l-1.4,3.3H98z M110.6,7.4c0.7,0.4,1.1,1.2,1,2
		c0,0.3-0.1,0.6-0.2,0.9c-0.1,0.3-0.3,0.5-0.5,0.7c-0.2,0.2-0.5,0.4-0.7,0.5c-0.3,0.1-0.5,0.2-0.8,0.3l2,2.8
		c0.1,0.1,0.2,0.2,0.3,0.3c0.1,0.1,0.3,0.1,0.4,0.2v0.4h-3.1v-0.4c0.2,0,0.3-0.1,0.3-0.2c0-0.2-0.1-0.4-0.3-0.6l-1.6-2.3h-2.8v2.8
		c0,0.1,0,0.2,0.1,0.2c0.1,0,0.2,0.1,0.3,0.1v0.4h-2.7v-0.4c0.2,0,0.4-0.1,0.4-0.3V7.5c0-0.2-0.1-0.3-0.4-0.3V6.9h5.6
		C108.7,6.8,109.7,7,110.6,7.4L110.6,7.4z M107.7,10.6c1.3,0,2-0.4,2-1.2c0-0.3-0.2-0.6-0.5-0.8c-0.5-0.2-1-0.3-1.5-0.3h-3.2v2.3
		H107.7z M44.2,25.2c0.1,0,0.3,0,0.4-0.1c0.1,0,0.1-0.1,0.1-0.2v-7.3c0-0.1,0-0.2-0.1-0.2c-0.1,0-0.3-0.1-0.4-0.1V17h3.1v0.4
		c-0.4,0-0.6,0.1-0.6,0.3v7.3c0,0.2,0.2,0.3,0.6,0.3v0.4h-3.1V25.2z M47.9,25.2c0.2,0,0.4-0.1,0.4-0.3v-7.3c0-0.2-0.1-0.3-0.4-0.3
		V17h3v0.4c-0.1,0-0.1,0-0.1,0.1s0.2,0.2,0.5,0.5l4.9,5v-5.3c0-0.2-0.1-0.3-0.4-0.3V17h2.5v0.4c-0.2,0-0.4,0.1-0.4,0.3v7.3
		c0,0.2,0.1,0.3,0.4,0.3v0.4h-2.7v-0.4c0.1,0,0.2,0,0.2-0.1s-0.1-0.1-0.2-0.3L55,24.4l-5-5.1v5.7c0,0.2,0.1,0.3,0.4,0.3v0.4h-2.5
		V25.2z M69.2,17.4c-0.2,0-0.3,0.1-0.5,0.4l-3,6.3c-0.1,0.2-0.2,0.5-0.3,0.7c-0.1,0.1-0.1,0.2-0.1,0.3c0,0.1,0.1,0.1,0.4,0.2v0.4h-3
		v-0.4l0.2-0.1c0.1,0,0.1-0.1,0.1-0.1c0-0.1-0.1-0.2-0.1-0.3c-0.1-0.2-0.2-0.4-0.3-0.6l-3.1-6.4c-0.1-0.1-0.1-0.2-0.2-0.3
		c-0.1-0.1-0.2-0.1-0.2-0.1V17h2.9v0.4c-0.1,0-0.2,0.1-0.2,0.2c0,0,0,0,0,0.1c0,0.1,0.1,0.3,0.1,0.4c0.1,0.2,0.2,0.3,0.3,0.5
		l2.3,4.9l2.2-4.7c0.2-0.3,0.3-0.5,0.3-0.7c0.1-0.1,0.1-0.2,0.1-0.4c0-0.2-0.1-0.2-0.3-0.2V17h2.7L69.2,17.4z M77.4,18.8
		c0-0.2-0.2-0.4-0.6-0.4h-4.9v1.9h3.1c0.2,0,0.3,0,0.5,0c0.1,0,0.2-0.1,0.2-0.3h0.4v2.1h-0.4c0-0.1,0-0.2-0.1-0.3c0,0,0,0,0,0
		c-0.2,0-0.4-0.1-0.6,0h-3v2.3H77c0.1,0,0.3,0,0.4-0.1c0.1-0.1,0.2-0.2,0.2-0.3h0.4v2h-0.4c0-0.1-0.1-0.2-0.2-0.2c0,0,0,0,0,0H77
		h-7.5v-0.4c0.1,0,0.1,0,0.2-0.1c0.1-0.1,0.1-0.1,0.1-0.2v-7.3c0-0.1,0-0.2-0.1-0.2c-0.1,0-0.1-0.1-0.2-0.1V17h7.2
		c0.4,0,0.6-0.1,0.6-0.4h0.4v2.2L77.4,18.8z M80.2,22.6c0,0.1,0,0.1,0,0.2c0,0.1,0,0.1,0,0.2c0,0.2,0.2,0.4,0.4,0.5
		c0.3,0.2,0.6,0.3,0.9,0.4c0.4,0.1,0.7,0.2,1.1,0.3c0.3,0.1,0.6,0.1,0.8,0.1c0.2,0,0.5,0,0.7,0c0.3,0,0.6-0.1,0.8-0.2
		c0.2-0.1,0.5-0.2,0.7-0.4c0.2-0.1,0.3-0.4,0.3-0.6c0-0.3-0.2-0.5-0.5-0.6c-0.4-0.1-0.8-0.2-1.2-0.3c-0.5-0.1-1-0.1-1.6-0.2
		c-0.5-0.1-1.1-0.2-1.6-0.4c-0.5-0.1-0.9-0.4-1.2-0.7c-0.3-0.3-0.5-0.8-0.5-1.3c0-0.8,0.4-1.6,1.1-2c0.9-0.5,1.9-0.8,3-0.7
		c0.5,0,1.1,0,1.6,0.1c0.4,0.1,0.8,0.2,1.2,0.3c0.3,0.1,0.5,0.2,0.8,0.3c0.1,0.1,0.3,0.1,0.4,0.1c0.1,0,0.2,0,0.2,0l0.2-0.1l0.2,0.2
		l-1,1.8l-0.4-0.1c0-0.1,0-0.2,0-0.2s-0.1-0.1-0.2-0.2c-0.4-0.3-0.8-0.5-1.3-0.6c-0.6-0.2-1.3-0.2-1.9-0.2c-0.3,0-0.5,0-0.8,0
		c-0.2,0-0.4,0.1-0.7,0.2c-0.2,0.1-0.3,0.2-0.4,0.3c-0.1,0.1-0.2,0.3-0.2,0.5c0,0.3,0.2,0.5,0.5,0.6c0.4,0.1,0.8,0.2,1.2,0.3
		l1.6,0.2c0.6,0.1,1.1,0.2,1.6,0.4c0.5,0.2,0.9,0.4,1.2,0.7c0.3,0.4,0.5,0.8,0.5,1.4c0,0.5-0.1,1-0.4,1.4c-0.3,0.4-0.7,0.7-1.1,0.9
		c-0.5,0.2-0.9,0.3-1.4,0.4c-0.5,0.1-1,0.1-1.5,0.1c-0.5,0-0.9,0-1.4-0.1c-0.4-0.1-0.9-0.2-1.2-0.3c-0.4-0.1-0.7-0.2-1-0.3
		c-0.1-0.1-0.3-0.1-0.5-0.1c-0.1,0-0.2,0-0.2,0.1l-0.3-0.2l0.9-2.2L80.2,22.6z M92,25.2c0.1-0.1,0.1-0.1,0.1-0.2v-6.5h-2.7
		c-0.1,0-0.2,0-0.3,0.1C89,18.6,89,18.7,89,18.8h-0.4v-2.2H89c0,0.1,0,0.3,0.1,0.4c0.1,0.1,0.2,0.1,0.3,0.1h7.2c0.1,0,0.2,0,0.3-0.1
		c0.1-0.1,0.2-0.2,0.1-0.4h0.4v2.2h-0.4c0-0.1,0-0.2-0.1-0.3c-0.1,0-0.2-0.1-0.3-0.1H94v6.5c0,0.2,0.1,0.3,0.4,0.3v0.4h-2.6v-0.4
		C91.8,25.2,91.9,25.2,92,25.2z M105,17.2c0.6,0.2,1.2,0.4,1.7,0.8c0.5,0.4,0.9,0.8,1.2,1.4c0.3,0.6,0.4,1.3,0.4,1.9
		c0,0.7-0.1,1.3-0.4,1.9c-0.3,0.5-0.7,1-1.2,1.4c-0.5,0.4-1.1,0.6-1.7,0.8c-1.4,0.3-2.8,0.3-4.2,0c-0.6-0.1-1.3-0.4-1.8-0.8
		c-0.5-0.4-0.9-0.8-1.2-1.4c-0.6-1.2-0.6-2.6,0-3.9c0.3-0.5,0.7-1,1.2-1.3c0.5-0.4,1.1-0.7,1.7-0.8C102.1,16.8,103.5,16.8,105,17.2
		L105,17.2z M101.6,18.5c-0.4,0.1-0.8,0.3-1.1,0.6c-0.3,0.2-0.6,0.6-0.8,0.9c-0.4,0.8-0.4,1.7,0,2.5c0.2,0.4,0.5,0.7,0.8,0.9
		c0.3,0.3,0.7,0.5,1.1,0.6c0.4,0.1,0.8,0.2,1.3,0.2c0.4,0,0.9-0.1,1.3-0.2c0.4-0.1,0.8-0.3,1.1-0.6c0.3-0.3,0.6-0.6,0.8-0.9
		c0.4-0.8,0.4-1.7,0-2.5c-0.2-0.4-0.5-0.7-0.8-0.9c-0.3-0.3-0.7-0.5-1.1-0.6c-0.4-0.1-0.8-0.2-1.3-0.2
		C102.4,18.3,102,18.4,101.6,18.5L101.6,18.5z M117.3,17.5c0.7,0.4,1.1,1.2,1,2c0,0.3-0.1,0.6-0.2,0.9c-0.1,0.3-0.3,0.5-0.5,0.7
		c-0.2,0.2-0.5,0.4-0.7,0.5c-0.3,0.1-0.5,0.2-0.8,0.3l2,2.8c0.1,0.1,0.2,0.2,0.3,0.3c0.1,0.1,0.3,0.1,0.4,0.2v0.4h-3.1v-0.4
		c0.2,0,0.3-0.1,0.3-0.2c0-0.2-0.2-0.4-0.3-0.6l-1.6-2.3h-2.8v2.8c0,0.1,0,0.2,0.1,0.2c0.1,0,0.2,0.1,0.2,0.1v0.4h-2.7v-0.4
		c0.2,0,0.4-0.1,0.4-0.3v-7.3c0-0.2-0.1-0.3-0.4-0.3V17h5.6C115.4,17,116.3,17.2,117.3,17.5L117.3,17.5z M114.4,20.7
		c1.3,0,2-0.4,2-1.2c0-0.3-0.2-0.6-0.5-0.8c-0.5-0.2-1-0.3-1.5-0.3h-3.2v2.3H114.4z M120.4,22.5c0,0.1,0,0.1,0,0.2
		c0,0.1,0,0.1,0,0.2c0,0.2,0.2,0.4,0.4,0.5c0.3,0.2,0.6,0.3,0.9,0.4c0.4,0.1,0.7,0.2,1.1,0.3c0.3,0.1,0.6,0.1,0.8,0.1
		c0.2,0,0.5,0,0.7,0c0.3,0,0.6-0.1,0.8-0.2c0.2-0.1,0.5-0.2,0.7-0.4c0.2-0.1,0.3-0.4,0.3-0.6c0-0.3-0.2-0.5-0.5-0.6
		c-0.4-0.1-0.8-0.2-1.2-0.3c-0.5-0.1-1-0.1-1.6-0.2c-0.5-0.1-1.1-0.2-1.6-0.4c-0.5-0.1-0.9-0.4-1.2-0.7c-0.3-0.3-0.5-0.8-0.5-1.3
		c0-0.8,0.4-1.6,1.1-2c0.9-0.5,1.9-0.8,3-0.7c0.5,0,1,0,1.5,0.1c0.4,0.1,0.8,0.2,1.2,0.3c0.3,0.1,0.5,0.2,0.8,0.3
		c0.1,0.1,0.3,0.1,0.4,0.1c0.1,0,0.2,0,0.2,0l0.2-0.1l0.2,0.2l-1,1.8l-0.4-0.1c0-0.1,0-0.2,0-0.2s-0.1-0.1-0.2-0.2
		c-0.4-0.3-0.8-0.5-1.3-0.6c-0.6-0.2-1.3-0.2-1.9-0.2c-0.3,0-0.5,0-0.8,0c-0.2,0-0.4,0.1-0.7,0.2c-0.2,0.1-0.3,0.2-0.4,0.3
		c-0.1,0.1-0.2,0.3-0.2,0.5c0,0.3,0.2,0.5,0.5,0.6c0.4,0.1,0.8,0.2,1.2,0.3l1.6,0.2c0.6,0.1,1.1,0.2,1.6,0.4
		c0.5,0.2,0.9,0.4,1.2,0.7c0.3,0.4,0.5,0.9,0.5,1.4c0,0.5-0.1,1-0.4,1.4c-0.3,0.4-0.7,0.7-1.1,0.9c-0.5,0.2-0.9,0.3-1.4,0.4
		c-0.5,0.1-1,0.1-1.5,0.1c-0.5,0-0.9,0-1.4-0.1c-0.5-0.1-0.9-0.2-1.2-0.3c-0.4-0.1-0.7-0.2-1-0.3c-0.1-0.1-0.3-0.1-0.5-0.1
		c-0.1,0-0.2,0-0.2,0.1l-0.3-0.2l0.9-2.2L120.4,22.5z"/>
</g>
</svg>
